<?xml version="1.0" encoding="UTF-8" standalone="no"?>
<!-- Created with Inkscape (http://www.inkscape.org/) -->

<svg
   xmlns:dc="http://purl.org/dc/elements/1.1/"
   xmlns:cc="http://creativecommons.org/ns#"
   xmlns:rdf="http://www.w3.org/1999/02/22-rdf-syntax-ns#"
   xmlns:svg="http://www.w3.org/2000/svg"
   xmlns="http://www.w3.org/2000/svg"
   xmlns:sodipodi="http://sodipodi.sourceforge.net/DTD/sodipodi-0.dtd"
   xmlns:inkscape="http://www.inkscape.org/namespaces/inkscape"
   width="600"
   height="600"
   id="svg2"
   version="1.1"
   inkscape:version="0.48.2 r9819"
   sodipodi:docname="epicyclic-gearing.png">
  <sodipodi:namedview
     id="base"
     pagecolor="#ffffff"
     bordercolor="#666666"
     borderopacity="1.0"
     inkscape:pageopacity="0.0"
     inkscape:pageshadow="2"
     inkscape:zoom="0.90537259"
     inkscape:cx="432.64544"
     inkscape:cy="299.73599"
     inkscape:document-units="px"
     inkscape:current-layer="svg2"
     showgrid="false"
     borderlayer="true"
     inkscape:showpageshadow="false"
     inkscape:window-width="1887"
     inkscape:window-height="850"
     inkscape:window-x="254"
     inkscape:window-y="105"
     inkscape:window-maximized="0"
     showguides="false">
    <inkscape:grid
       type="xygrid"
       id="grid3819"
       empspacing="50"
       visible="true"
       enabled="true"
       snapvisiblegridlinesonly="false" />
  </sodipodi:namedview>
  <defs
     id="defs4" />
  <metadata
     id="metadata7">
    <rdf:RDF>
      <cc:Work
         rdf:about="">
        <dc:format>image/svg+xml</dc:format>
        <dc:type
           rdf:resource="http://purl.org/dc/dcmitype/StillImage" />
        <dc:title></dc:title>
      </cc:Work>
    </rdf:RDF>
  </metadata>
  <path
     id="centralGear"
     d="m 350.01917,303.99191 0.88748,0.18584 0.87888,0.2836 0.87201,0.3503 0.86519,0.40646 0.85804,0.4568 0.8504,0.50335 0.84217,0.5472 0.83326,0.58903 0.82379,0.62925 0.81351,0.66817 0.80257,0.70591 -0.18244,1.09581 -0.2027,1.0922 -0.22281,1.08827 -0.24295,1.08399 -1.0091,0.35239 -1.00504,0.31327 -0.9999,0.27336 -0.99363,0.23252 -0.9861,0.19042 -0.97726,0.14669 -0.96682,0.10061 -0.95451,0.0514 -0.93975,-0.003 -0.92101,-0.0677 -0.89225,-0.16145 -3.29427,-1.04002 -0.62413,1.8424 -0.70027,1.81482 -0.77519,1.78412 -0.84877,1.75028 3.07628,1.57175 0.74878,0.51133 0.70344,0.59835 0.67162,0.65737 0.64376,0.70659 0.61791,0.7504 0.59303,0.79046 0.56865,0.82784 0.54447,0.86305 0.52025,0.8966 0.4959,0.92862 0.47132,0.95931 -0.58788,0.94255 -0.60523,0.93153 -0.62234,0.92015 -0.63925,0.90849 -1.06715,-0.0608 -1.04842,-0.0953 -1.02837,-0.13015 -1.00695,-0.1654 -0.98394,-0.20144 -0.95901,-0.23844 -0.93176,-0.27695 -0.90152,-0.31782 -0.86695,-0.36266 -0.82505,-0.41495 -0.76255,-0.49057 -2.64549,-2.22151 -1.28168,1.4633 -1.34145,1.40867 -1.39896,1.35166 -1.45398,1.29226 2.24067,2.62932 0.49609,0.75898 0.42094,0.82201 0.3689,0.86429 0.32437,0.89921 0.28369,0.92972 0.24543,0.95721 0.20854,0.98246 0.17272,1.00573 0.13756,1.02743 0.10272,1.04771 0.0684,1.06666 -0.90384,0.64583 -0.91561,0.629 -0.92712,0.61196 -0.93826,0.59471 -0.96271,-0.46433 -0.93219,-0.48919 -0.90033,-0.51373 -0.86702,-0.53818 -0.83194,-0.56263 -0.79474,-0.58728 -0.75485,-0.61247 -0.71123,-0.63864 -0.66219,-0.66681 -0.60345,-0.69908 -0.51677,-0.74505 -1.59398,-3.06483 -1.74411,0.86146 -1.77843,0.78811 -1.80969,0.71341 -1.83783,0.63748 1.06388,3.28663 0.16791,0.89103 0.0742,0.92054 0.0112,0.93969 -0.0446,0.95488 -0.0935,0.96751 -0.13965,0.9783 -0.18327,0.98745 -0.22531,0.99528 -0.26605,1.00185 -0.30598,1.00729 -0.34509,1.01163 -1.08218,0.25078 -1.08663,0.23073 -1.09074,0.21057 -1.09439,0.1904 -0.71176,-0.79743 -0.67404,-0.80865 -0.63518,-0.81916 -0.59504,-0.82902 -0.55331,-0.83818 -0.50951,-0.84671 -0.46302,-0.8547 -0.4127,-0.8622 -0.35662,-0.86949 -0.28997,-0.8768 -0.19231,-0.88608 -0.2998,-3.44154 -1.94099,0.12845 -1.94465,0.0475 -1.94497,-0.0336 -1.94189,-0.11433 -0.27485,3.44357 -0.18584,0.88748 -0.2836,0.87889 -0.3503,0.872 -0.40646,0.86519 -0.4568,0.85804 -0.50335,0.85039 -0.5472,0.84218 -0.58903,0.83329 -0.62925,0.82377 -0.66817,0.8135 -0.70591,0.80257 -1.09581,-0.18245 -1.0922,-0.20268 -1.08827,-0.22282 -1.08399,-0.24293 -0.35239,-1.00911 -0.31327,-1.00503 -0.27336,-0.99991 -0.23252,-0.99362 -0.19042,-0.98612 -0.14669,-0.97724 -0.10061,-0.96682 -0.0514,-0.95452 0.003,-0.93974 0.0678,-0.92102 0.16145,-0.89225 1.04002,-3.29426 -1.8424,-0.62413 -1.81482,-0.70028 -1.78412,-0.77518 -1.75028,-0.84879 -1.57175,3.07629 -0.51133,0.74878 -0.59835,0.70344 -0.65736,0.67162 -0.7066,0.64378 -0.7504,0.61789 -0.79046,0.59304 -0.82784,0.56864 -0.86305,0.54448 -0.8966,0.52025 -0.92862,0.49589 -0.95931,0.47132 -0.94255,-0.58789 -0.93153,-0.60522 -0.92015,-0.62233 -0.90849,-0.63924 0.0608,-1.06717 0.0953,-1.04842 0.13015,-1.02837 0.1654,-1.00696 0.20144,-0.98393 0.23844,-0.959 0.27695,-0.93176 0.31782,-0.90154 0.36266,-0.86694 0.41495,-0.82505 0.49057,-0.76255 2.22151,-2.64549 -1.4633,-1.28167 -1.40867,-1.34146 -1.35166,-1.39896 -1.29226,-1.45398 -2.62932,2.24067 -0.75898,0.4961 -0.82201,0.42093 -0.86429,0.36891 -0.89921,0.32436 -0.92972,0.28369 -0.95721,0.24544 -0.98246,0.20853 -1.00573,0.17272 -1.02743,0.13756 -1.04771,0.10271 -1.06666,0.0684 -0.64583,-0.90384 -0.629,-0.9156 -0.61196,-0.92713 -0.59471,-0.93826 0.46433,-0.96271 0.48919,-0.93218 0.51373,-0.90034 0.53818,-0.86702 0.56263,-0.83194 0.58728,-0.79474 0.61247,-0.75484 0.63864,-0.71123 0.66681,-0.66221 0.69908,-0.60344 0.74505,-0.51677 3.06483,-1.59397 -0.86146,-1.74411 -0.78811,-1.77844 -0.71341,-1.80969 -0.63748,-1.83783 -3.28663,1.06388 -0.89103,0.16792 -0.92054,0.0742 -0.93969,0.0112 -0.95488,-0.0444 -0.96751,-0.0935 -0.9783,-0.13965 -0.98745,-0.18327 -0.99528,-0.22532 -1.00185,-0.26605 -1.00729,-0.30597 -1.01163,-0.3451 -0.25078,-1.08218 -0.23073,-1.08663 -0.21057,-1.09073 -0.1904,-1.0944 0.79743,-0.71175 0.80865,-0.67405 0.81916,-0.63518 0.82902,-0.59503 0.83818,-0.55332 0.84671,-0.50949 0.8547,-0.46304 0.8622,-0.4127 0.86949,-0.35661 0.8768,-0.28996 0.88608,-0.19232 3.44154,-0.2998 -0.12845,-1.94099 -0.0475,-1.94466 0.0336,-1.94496 0.11433,-1.94189 -3.44357,-0.27483 -0.88749,-0.18588 -0.87889,-0.28359 -0.872,-0.3503 -0.86519,-0.40645 -0.85804,-0.4568 -0.85039,-0.50335 -0.84218,-0.5472 -0.83329,-0.58903 -0.82376,-0.62925 -0.8135,-0.66816 -0.80258,-0.70591 0.18245,-1.09582 0.20268,-1.0922 0.22282,-1.08828 0.24293,-1.08398 1.00911,-0.3524 1.00503,-0.31326 0.99991,-0.27335 0.99362,-0.23253 0.98612,-0.19041 0.97724,-0.14669 0.96682,-0.10061 0.95452,-0.0513 0.93974,0.003 0.92102,0.0678 0.89225,0.16146 3.29426,1.04003 0.62413,-1.84242 0.70028,-1.81482 0.77518,-1.78412 0.84879,-1.75027 -3.07629,-1.57175 -0.74878,-0.51133 -0.70344,-0.59836 -0.67162,-0.65735 -0.64378,-0.7066 -0.61789,-0.7504 -0.59304,-0.79046 -0.56864,-0.82783 -0.54448,-0.86307 -0.52025,-0.89658 -0.49589,-0.92861 -0.47132,-0.95933 0.58789,-0.94254 0.60522,-0.93153 0.62233,-0.92017 0.63924,-0.9085 1.06717,0.0608 1.04842,0.0952 1.02837,0.13015 1.00696,0.16541 0.98393,0.20144 0.959,0.23843 0.93176,0.27697 0.90154,0.31782 0.86694,0.36266 0.82505,0.41494 0.76255,0.49057 2.64549,2.22151 1.28167,-1.46329 1.34146,-1.40868 1.39896,-1.35164 1.45399,-1.29226 -2.24067,-2.62932 -0.4961,-0.75899 -0.42093,-0.822 -0.36891,-0.8643 -0.32436,-0.89921 -0.28369,-0.92972 -0.24544,-0.95721 -0.20853,-0.98245 -0.17272,-1.00574 -0.13756,-1.02743 -0.10271,-1.04771 -0.0684,-1.06665 0.90384,-0.64583 0.9156,-0.62901 0.92713,-0.61196 0.93826,-0.59472 0.96271,0.46435 0.93218,0.48918 0.90034,0.51374 0.86702,0.53819 0.83194,0.56261 0.79474,0.58728 0.75484,0.61246 0.71123,0.63864 0.66221,0.66683 0.60344,0.69907 0.51677,0.74505 1.59397,3.06483 1.74411,-0.86145 1.77844,-0.78812 1.80969,-0.71341 1.83783,-0.63747 -1.06388,-3.28663 -0.16792,-0.89104 -0.0742,-0.92055 -0.0112,-0.93968 0.0446,-0.95487 0.0936,-0.9675 0.13964,-0.97832 0.18327,-0.98746 0.22531,-0.99527 0.26605,-1.00184 0.30597,-1.0073 0.3451,-1.01164 1.08218,-0.25077 1.08663,-0.23071 1.09074,-0.21059 1.09439,-0.19041 0.71176,0.79744 0.67404,0.80865 0.63518,0.81917 0.59504,0.82903 0.55331,0.83816 0.50951,0.84672 0.46303,0.8547 0.41269,0.86219 0.35662,0.8695 0.28997,0.87678 0.19231,0.8861 0.2998,3.44152 1.94099,-0.12843 1.94465,-0.0475 1.94497,0.0334 1.94189,0.11433 0.27485,-3.44357 0.18584,-0.88748 0.28361,-0.87887 0.35029,-0.87202 0.40646,-0.86518 0.4568,-0.85804 0.50335,-0.85039 0.54721,-0.84218 0.58902,-0.83329 0.62925,-0.82377 0.66817,-0.81349 0.70591,-0.8026 1.09582,0.18246 1.09219,0.20267 1.08827,0.22284 1.08399,0.24291 0.35239,1.00911 0.31327,1.00503 0.27336,0.99991 0.23252,0.99362 0.19042,0.98613 0.14669,0.97723 0.10061,0.96682 0.0514,0.95452 -0.003,0.93974 -0.0677,0.92103 -0.16146,0.89226 -1.04002,3.29424 1.8424,0.62415 1.81483,0.70027 1.78411,0.77517 1.75028,0.8488 1.57175,-3.0763 0.51133,-0.74877 0.59835,-0.70345 0.65737,-0.67162 0.70659,-0.64377 0.7504,-0.6179 0.79046,-0.59303 0.82784,-0.56865 0.86305,-0.54446 0.8966,-0.52027 0.92862,-0.49589 0.95931,-0.4713 0.94255,0.58788 0.93153,0.60522 0.92015,0.62234 0.90849,0.63924 -0.0608,1.06716 -0.0953,1.04843 -0.13015,1.02835 -0.1654,1.00697 -0.20144,0.98393 -0.23843,0.959 -0.27696,0.93175 -0.31782,0.90155 -0.36266,0.86693 -0.41495,0.82507 -0.49057,0.76253 -2.22151,2.64549 1.4633,1.28168 1.40868,1.34145 1.35165,1.39896 1.29226,1.45399 2.62932,-2.24067 0.75899,-0.4961 0.822,-0.42093 0.86429,-0.3689 0.89921,-0.32436 0.92972,-0.2837 0.95721,-0.24543 0.98246,-0.20852 1.00573,-0.17273 1.02744,-0.13757 1.0477,-0.10271 1.06666,-0.0684 0.64583,0.90384 0.629,0.9156 0.61196,0.92713 0.59471,0.93826 -0.46433,0.96272 -0.48919,0.93217 -0.51373,0.90034 -0.53818,0.86702 -0.56263,0.83194 -0.58728,0.79474 -0.61247,0.75484 -0.63864,0.71123 -0.66681,0.66222 -0.69908,0.60343 -0.74505,0.51678 -3.06483,1.59396 0.86146,1.74411 0.78811,1.77845 0.71341,1.80968 0.63748,1.83783 3.28663,-1.06388 0.89103,-0.16791 0.92055,-0.0742 0.93968,-0.0112 0.95488,0.0446 0.96751,0.0935 0.9783,0.13965 0.98745,0.18328 0.99528,0.2253 1.00185,0.26606 1.00731,0.30598 1.01162,0.34509 0.25079,1.08218 0.23071,1.08663 0.21057,1.09072 0.1904,1.09441 -0.79742,0.71175 -0.80865,0.67405 -0.81917,0.63517 -0.82902,0.59505 -0.83817,0.5533 -0.84672,0.5095 -0.85469,0.46304 -0.86221,0.4127 -0.86949,0.35661 -0.8768,0.28997 -0.88608,0.19232 -3.44154,0.2998 0.12845,1.94098 0.0475,1.94466 -0.0336,1.94496 -0.11433,1.9419 z m -45.82991,-1.7173 a 4.7678036,4.7678036 0 0 1 -6.09766,2.09457 l -25.79991,29.63521 a 43.863795,43.863795 0 0 0 70.46237,-24.204 z m -8.25525,0.2162 a 4.7678036,4.7678036 0 0 1 1.23487,-6.32801 L 284.404,259.00182 a 43.863795,43.863795 0 0 0 -14.26992,73.1242 z m 3.94039,-7.25736 a 4.7678036,4.7678036 0 0 1 4.86278,4.23345 l 38.56479,7.52576 a 43.863795,43.863795 0 0 0 -56.19245,-48.9202 z m -0.24046,6.63799 a 1.9071227,1.9071227 0 0 0 0.73055,-3.74363 1.9071227,1.9071227 0 1 0 -0.73055,3.74363"
     style="fill:#808464;fill-opacity:1;stroke:#000000;stroke-width:0.16146964000000000"
     inkscape:connector-curvature="0">
    <animateTransform
       repeatCount="indefinite"
       dur="12"
       to="360,300,300"
       from="0,300,300"
       type="rotate"
       attributeName="transform"
       id="animateTransform3893" />
  </path>
  <path
     inkscape:connector-curvature="0"
     style="fill:#a4945c;fill-opacity:1;stroke:#000000;stroke-width:0.13864087999999999"
     d="m 516.27395,369.70063 2.26925,0.20352 2.28445,0.50528 2.28961,0.71568 2.28868,0.89616 2.28247,1.06055 0.0233,2.12918 -0.0233,2.12918 -2.28247,1.06055 -2.28868,0.89616 -2.28961,0.71568 -2.28445,0.50528 -2.26925,0.20352 -0.20066,-0.0129 -0.238,2.92886 -0.33796,2.91902 0.19932,0.0265 2.18592,0.64232 2.14198,0.94124 2.10603,1.14861 2.06986,1.32546 2.03171,1.48544 -0.39256,2.09281 -0.4382,2.08375 -2.44553,0.59486 -2.41954,0.43244 -2.38525,0.25526 -2.33912,0.0499 -2.26535,-0.2431 -0.19428,-0.0518 -0.80483,2.82614 -0.90094,2.79699 0.19031,0.0649 2.01861,1.05642 1.9172,1.34105 1.84147,1.53741 1.77151,1.70378 1.70288,1.85328 -0.79331,1.976 -0.8363,1.95821 -2.51458,0.10637 -2.4574,-0.0479 -2.38923,-0.215 -2.30393,-0.4074 -2.17437,-0.68038 -0.18047,-0.0887 -1.3407,2.61484 -1.4293,2.56746 0.17397,0.10079 1.77375,1.42995 1.61873,1.68929 1.50615,1.86712 1.40507,2.01665 1.30861,2.14988 -1.16356,1.78329 -1.20225,1.75741 -2.48701,-0.38625 -2.40087,-0.5264 -2.30137,-0.67698 -2.18015,-0.84904 -1.99989,-1.09152 -0.15969,-0.12216 -1.82507,2.30303 -1.90271,2.2393 0.15096,0.1328 1.46069,1.74849 1.25808,1.97265 1.11294,2.12507 0.98465,2.25201 0.86403,2.36387 -1.48909,1.52203 -1.52203,1.48909 -2.36387,-0.86403 -2.25201,-0.98465 -2.12507,-1.11294 -1.97265,-1.25808 -1.74849,-1.46069 -0.1328,-0.15096 -2.2393,1.90271 -2.30303,1.82507 0.12216,0.15969 1.09152,1.99989 0.84904,2.18015 0.67698,2.30137 0.5264,2.40087 0.38625,2.48701 -1.75741,1.20225 -1.78329,1.16356 -2.14988,-1.30861 -2.01665,-1.40507 -1.86712,-1.50615 -1.68929,-1.61873 -1.42995,-1.77375 -0.10079,-0.17397 -2.56746,1.4293 -2.61484,1.3407 0.0887,0.18047 0.68038,2.17437 0.4074,2.30393 0.215,2.38923 0.0479,2.4574 -0.10637,2.51458 -1.95821,0.8363 -1.976,0.79331 -1.85328,-1.70288 -1.70378,-1.77151 -1.53741,-1.84147 -1.34105,-1.9172 -1.05642,-2.01861 -0.0649,-0.19031 -2.79699,0.90094 -2.82614,0.80483 0.0518,0.19428 0.2431,2.26535 -0.0499,2.33912 -0.25526,2.38525 -0.43244,2.41954 -0.59486,2.44553 -2.08375,0.4382 -2.09281,0.39256 -1.48544,-2.03171 -1.32546,-2.06986 -1.14861,-2.10603 -0.94124,-2.14198 -0.64232,-2.18592 -0.0265,-0.19932 -2.91902,0.33796 -2.92886,0.238 0.0129,0.20066 -0.20352,2.26925 -0.50528,2.28445 -0.71568,2.28961 -0.89616,2.28868 -1.06055,2.28247 -2.12918,0.0233 -2.12918,-0.0233 -1.06055,-2.28247 -0.89616,-2.28868 -0.71568,-2.28961 -0.50528,-2.28445 -0.20352,-2.26925 0.0129,-0.20066 -2.92886,-0.238 -2.91902,-0.33796 -0.0265,0.19932 -0.64232,2.18592 -0.94124,2.14198 -1.14861,2.10603 -1.32546,2.06986 -1.48544,2.03171 -2.09281,-0.39256 -2.08375,-0.4382 -0.59486,-2.44553 -0.43244,-2.41954 -0.25526,-2.38525 -0.0499,-2.33912 0.2431,-2.26535 0.0518,-0.19428 -2.82614,-0.80483 -2.79699,-0.90094 -0.0649,0.19031 -1.05642,2.01861 -1.34105,1.9172 -1.53741,1.84147 -1.70378,1.77151 -1.85328,1.70288 -1.976,-0.79331 -1.95821,-0.8363 -0.10637,-2.51458 0.0479,-2.4574 0.215,-2.38923 0.4074,-2.30393 0.68038,-2.17437 0.0887,-0.18047 -2.61484,-1.3407 -2.56746,-1.4293 -0.10079,0.17397 -1.42995,1.77375 -1.68929,1.61873 -1.86712,1.50615 -2.01665,1.40507 -2.14988,1.30861 -1.78329,-1.16356 -1.75741,-1.20225 0.38625,-2.48701 0.5264,-2.40087 0.67698,-2.30137 0.84904,-2.18015 1.09152,-1.99989 0.12216,-0.15969 -2.30303,-1.82507 -2.2393,-1.90271 -0.1328,0.15096 -1.74849,1.46069 -1.97265,1.25808 -2.12507,1.11294 -2.25201,0.98465 -2.36387,0.86403 -1.52203,-1.48909 -1.48909,-1.52203 0.86403,-2.36387 0.98465,-2.25201 1.11294,-2.12507 1.25808,-1.97265 1.46069,-1.74849 0.15096,-0.1328 -1.90271,-2.2393 -1.82507,-2.30303 -0.15969,0.12216 -1.99989,1.09152 -2.18015,0.84904 -2.30137,0.67698 -2.40087,0.5264 -2.48701,0.38625 -1.20225,-1.75741 -1.16356,-1.78329 1.30861,-2.14988 1.40507,-2.01665 1.50615,-1.86712 1.61873,-1.68929 1.77375,-1.42995 0.17397,-0.10079 -1.4293,-2.56746 -1.3407,-2.61484 -0.18047,0.0887 -2.17437,0.68038 -2.30393,0.4074 -2.38923,0.215 -2.4574,0.0479 -2.51458,-0.10637 -0.8363,-1.95821 -0.79331,-1.976 1.70288,-1.85328 1.77151,-1.70378 1.84147,-1.53741 1.9172,-1.34105 2.01861,-1.05642 0.19031,-0.0649 -0.90094,-2.79699 -0.80483,-2.82614 -0.19428,0.0518 -2.26535,0.2431 -2.33912,-0.0499 -2.38525,-0.25526 -2.41954,-0.43244 -2.44553,-0.59486 -0.4382,-2.08375 -0.39256,-2.09281 2.03171,-1.48544 2.06986,-1.32546 2.10603,-1.14861 2.14198,-0.94124 2.18592,-0.64232 0.19932,-0.0265 -0.33796,-2.91902 -0.238,-2.92886 -0.20066,0.0129 -2.26925,-0.20352 -2.28445,-0.50528 -2.28961,-0.71568 -2.28868,-0.89616 -2.28247,-1.06055 -0.0233,-2.12918 0.0233,-2.12918 2.28247,-1.06055 2.28868,-0.89616 2.28961,-0.71568 2.28445,-0.50528 2.26925,-0.20352 0.20066,0.0129 0.238,-2.92886 0.33796,-2.91902 -0.19932,-0.0265 -2.18592,-0.64232 -2.14198,-0.94124 -2.10603,-1.14861 -2.06986,-1.32546 -2.03171,-1.48544 0.39256,-2.09281 0.4382,-2.08375 2.44553,-0.59486 2.41954,-0.43244 2.38525,-0.25526 2.33912,-0.0499 2.26535,0.2431 0.19428,0.0518 0.80483,-2.82614 0.90094,-2.79699 -0.19031,-0.0649 -2.01861,-1.05642 -1.9172,-1.34105 -1.84147,-1.53741 -1.77151,-1.70378 -1.70288,-1.85328 0.79331,-1.976 0.8363,-1.95821 2.51458,-0.10637 2.4574,0.0479 2.38923,0.215 2.30393,0.4074 2.17437,0.68038 0.18047,0.0887 1.3407,-2.61484 1.4293,-2.56746 -0.17397,-0.10079 -1.77375,-1.42995 -1.61873,-1.68929 -1.50615,-1.86712 -1.40507,-2.01665 -1.30861,-2.14988 1.16356,-1.78329 1.20225,-1.75741 2.48701,0.38625 2.40087,0.5264 2.30137,0.67698 2.18015,0.84904 1.99989,1.09152 0.15969,0.12216 1.82507,-2.30303 1.90271,-2.2393 -0.15096,-0.1328 -1.46069,-1.74849 -1.25808,-1.97265 -1.11294,-2.12507 -0.98465,-2.25201 -0.86403,-2.36387 1.48909,-1.52203 1.52203,-1.48909 2.36387,0.86403 2.25201,0.98465 2.12507,1.11294 1.97265,1.25808 1.74849,1.46069 0.1328,0.15096 2.2393,-1.90271 2.30303,-1.82507 -0.12216,-0.15969 -1.09152,-1.99989 -0.84904,-2.18015 -0.67698,-2.30137 -0.5264,-2.40087 -0.38625,-2.48701 1.75741,-1.20225 1.78329,-1.16356 2.14988,1.30861 2.01665,1.40507 1.86712,1.50615 1.68929,1.61873 1.42995,1.77375 0.10079,0.17397 2.56746,-1.4293 2.61484,-1.3407 -0.0887,-0.18047 -0.68038,-2.17437 -0.4074,-2.30393 -0.215,-2.38922 -0.0479,-2.45741 0.10637,-2.51458 1.95821,-0.8363 1.976,-0.79331 1.85328,1.70288 1.70378,1.77151 1.53741,1.84147 1.34105,1.9172 1.05642,2.01861 0.0649,0.19031 2.79699,-0.90094 2.82614,-0.80483 -0.0518,-0.19428 -0.2431,-2.26535 0.0499,-2.33912 0.25526,-2.38525 0.43244,-2.41954 0.59486,-2.44553 2.08375,-0.4382 2.09281,-0.39256 1.48544,2.03171 1.32546,2.06986 1.14861,2.10603 0.94124,2.14198 0.64232,2.18592 0.0265,0.19932 2.91902,-0.33796 2.92886,-0.238 -0.0129,-0.20066 0.20352,-2.26925 0.50528,-2.28445 0.71568,-2.28961 0.89616,-2.28868 1.06055,-2.28247 2.12918,-0.0233 2.12918,0.0233 1.06055,2.28247 0.89616,2.28868 0.71568,2.28961 0.50528,2.28445 0.20352,2.26925 -0.0129,0.20066 2.92886,0.238 2.91902,0.33796 0.0265,-0.19932 0.64232,-2.18592 0.94124,-2.14198 1.14861,-2.10603 1.32546,-2.06986 1.48544,-2.03171 2.09281,0.39256 2.08375,0.4382 0.59486,2.44553 0.43244,2.41954 0.25526,2.38525 0.0499,2.33912 -0.2431,2.26535 -0.0518,0.19428 2.82614,0.80483 2.79699,0.90094 0.0649,-0.19031 1.05642,-2.01861 1.34105,-1.9172 1.53741,-1.84147 1.70378,-1.77151 1.85328,-1.70288 1.976,0.79331 1.95821,0.8363 0.10637,2.51458 -0.0479,2.45741 -0.215,2.38922 -0.4074,2.30393 -0.68038,2.17437 -0.0887,0.18047 2.61484,1.3407 2.56746,1.4293 0.10079,-0.17397 1.42995,-1.77375 1.68929,-1.61873 1.86712,-1.50615 2.01665,-1.40507 2.14988,-1.30861 1.78329,1.16356 1.75741,1.20225 -0.38625,2.48701 -0.5264,2.40087 -0.67698,2.30137 -0.84904,2.18015 -1.09152,1.99989 -0.12216,0.15969 2.30303,1.82507 2.2393,1.90271 0.1328,-0.15096 1.74849,-1.46069 1.97265,-1.25808 2.12507,-1.11294 2.25201,-0.98465 2.36387,-0.86403 1.52203,1.48909 1.48909,1.52203 -0.86403,2.36387 -0.98465,2.25201 -1.11294,2.12507 -1.25808,1.97265 -1.46069,1.74849 -0.15096,0.1328 1.90271,2.2393 1.82507,2.30303 0.15969,-0.12216 1.99989,-1.09152 2.18015,-0.84904 2.30137,-0.67698 2.40087,-0.5264 2.48701,-0.38625 1.20225,1.75741 1.16356,1.78329 -1.30861,2.14988 -1.40507,2.01665 -1.50615,1.86712 -1.61873,1.68929 -1.77375,1.42995 -0.17397,0.10079 1.4293,2.56746 1.3407,2.61484 0.18047,-0.0887 2.17437,-0.68038 2.30393,-0.4074 2.38923,-0.215 2.4574,-0.0479 2.51458,0.10637 0.8363,1.95821 0.79331,1.976 -1.70288,1.85328 -1.77151,1.70378 -1.84147,1.53741 -1.9172,1.34105 -2.01861,1.05642 -0.19031,0.0649 0.90094,2.79699 0.80483,2.82614 0.19428,-0.0518 2.26535,-0.2431 2.33912,0.0499 2.38525,0.25526 2.41954,0.43244 2.44553,0.59486 0.4382,2.08375 0.39256,2.09281 -2.03171,1.48544 -2.06986,1.32546 -2.10603,1.14861 -2.14198,0.94124 -2.18592,0.64232 -0.19932,0.0265 0.33796,2.91902 0.238,2.92886 z m -82.08778,6.73849 a 4.0937264,4.0937264 0 0 1 -4.79417,2.76791 l -39.79891,68.93374 a 83.512019,83.512019 0 0 0 124.19089,-71.70165 z m -6.92133,1.53979 a 4.0937264,4.0937264 0 0 1 0,-5.53582 l -39.79892,-68.93374 a 83.512019,83.512019 0 0 0 0,143.4033 z m 2.12716,-6.76394 a 4.0937264,4.0937264 0 0 1 4.79417,2.76791 l 79.59781,0 A 83.512019,83.512019 0 0 0 389.59309,302.28123 z m 0.889,5.63352 a 1.6374905,1.6374905 0 0 0 0,-3.27498 1.6374905,1.6374905 0 1 0 0,3.27498"
     id="outerGear3">
    <animateTransform
       id="animateTransform3891"
       attributeName="transform"
       type="rotate"
       from="360,430.51,375"
       to="0,430.51,375"
       dur="24"
       repeatCount="indefinite" />
  </path>
  <path
     id="outerGear2"
     d="m 255.72095,369.70063 2.26925,0.20352 2.28445,0.50528 2.28961,0.71568 2.28868,0.89616 2.28247,1.06055 0.0233,2.12918 -0.0233,2.12918 -2.28247,1.06055 -2.28868,0.89616 -2.28961,0.71568 -2.28445,0.50528 -2.26925,0.20352 -0.20066,-0.0129 -0.238,2.92886 -0.33796,2.91902 0.19932,0.0265 2.18592,0.64232 2.14198,0.94124 2.10603,1.14861 2.06986,1.32546 2.03171,1.48544 -0.39256,2.09281 -0.4382,2.08375 -2.44553,0.59486 -2.41954,0.43244 -2.38525,0.25526 -2.33912,0.0499 -2.26535,-0.2431 -0.19428,-0.0518 -0.80483,2.82614 -0.90094,2.79699 0.19031,0.0649 2.01861,1.05642 1.9172,1.34105 1.84147,1.53741 1.77151,1.70378 1.70288,1.85328 -0.79331,1.976 -0.8363,1.95821 -2.51458,0.10637 -2.4574,-0.0479 -2.38923,-0.215 -2.30393,-0.4074 -2.17437,-0.68038 -0.18047,-0.0887 -1.3407,2.61484 -1.4293,2.56746 0.17397,0.10079 1.77375,1.42995 1.61873,1.68929 1.50615,1.86712 1.40507,2.01665 1.30861,2.14988 -1.16356,1.78329 -1.20225,1.75741 -2.48701,-0.38625 -2.40087,-0.5264 -2.30137,-0.67698 -2.18015,-0.84904 -1.99989,-1.09152 -0.15969,-0.12216 -1.82507,2.30303 -1.90271,2.2393 0.15096,0.1328 1.46069,1.74849 1.25808,1.97265 1.11294,2.12507 0.98465,2.25201 0.86403,2.36387 -1.48909,1.52203 -1.52203,1.48909 -2.36387,-0.86403 -2.25201,-0.98465 -2.12507,-1.11294 -1.97265,-1.25808 -1.74849,-1.46069 -0.1328,-0.15096 -2.2393,1.90271 -2.30303,1.82507 0.12216,0.15969 1.09152,1.99989 0.84904,2.18015 0.67698,2.30137 0.5264,2.40087 0.38625,2.48701 -1.75741,1.20225 -1.78329,1.16356 -2.14988,-1.30861 -2.01665,-1.40507 -1.86712,-1.50615 -1.68929,-1.61873 -1.42995,-1.77375 -0.10079,-0.17397 -2.56746,1.4293 -2.61484,1.3407 0.0887,0.18047 0.68038,2.17437 0.4074,2.30393 0.215,2.38923 0.0479,2.4574 -0.10637,2.51458 -1.95821,0.8363 -1.976,0.79331 -1.85328,-1.70288 -1.70378,-1.77151 -1.53741,-1.84147 -1.34105,-1.9172 -1.05642,-2.01861 -0.0649,-0.19031 -2.79699,0.90094 -2.82614,0.80483 0.0518,0.19428 0.2431,2.26535 -0.0499,2.33912 -0.25526,2.38525 -0.43244,2.41954 -0.59486,2.44553 -2.08375,0.4382 -2.09281,0.39256 -1.48544,-2.03171 -1.32546,-2.06986 -1.14861,-2.10603 -0.94124,-2.14198 -0.64232,-2.18592 -0.0265,-0.19932 -2.91902,0.33796 -2.92886,0.238 0.0129,0.20066 -0.20352,2.26925 -0.50528,2.28445 -0.71568,2.28961 -0.89616,2.28868 -1.06055,2.28247 -2.12918,0.0233 -2.12918,-0.0233 -1.06055,-2.28247 -0.89616,-2.28868 -0.71568,-2.28961 -0.50528,-2.28445 -0.20352,-2.26925 0.0129,-0.20066 -2.92886,-0.238 -2.91902,-0.33796 -0.0265,0.19932 -0.64232,2.18592 -0.94124,2.14198 -1.14861,2.10603 -1.32546,2.06986 -1.48544,2.03171 -2.09281,-0.39256 -2.08375,-0.4382 -0.59486,-2.44553 -0.43244,-2.41954 -0.25526,-2.38525 -0.0499,-2.33912 0.2431,-2.26535 0.0518,-0.19428 -2.82614,-0.80483 -2.79699,-0.90094 -0.0649,0.19031 -1.05642,2.01861 -1.34105,1.9172 -1.53741,1.84147 -1.70378,1.77151 -1.85328,1.70288 -1.976,-0.79331 -1.95821,-0.8363 -0.10637,-2.51458 0.0479,-2.4574 0.215,-2.38923 0.4074,-2.30393 0.68038,-2.17437 0.0887,-0.18047 -2.61484,-1.3407 -2.56746,-1.4293 -0.10079,0.17397 -1.42995,1.77375 -1.68929,1.61873 -1.86712,1.50615 -2.01665,1.40507 -2.14988,1.30861 -1.78329,-1.16356 -1.75741,-1.20225 0.38625,-2.48701 0.5264,-2.40087 0.67698,-2.30137 0.84904,-2.18015 1.09152,-1.99989 0.12216,-0.15969 -2.30303,-1.82507 -2.2393,-1.90271 -0.1328,0.15096 -1.74849,1.46069 -1.97265,1.25808 -2.12507,1.11294 -2.25201,0.98465 -2.36387,0.86403 -1.52203,-1.48909 -1.489091,-1.52203 0.864031,-2.36387 0.98465,-2.25201 1.11294,-2.12507 1.25808,-1.97265 1.46069,-1.74849 0.15096,-0.1328 -1.90271,-2.2393 -1.82507,-2.30303 -0.15969,0.12216 -1.999892,1.09152 -2.180151,0.84904 -2.301369,0.67698 -2.400867,0.5264 -2.487009,0.38625 -1.202248,-1.75741 -1.163566,-1.78329 1.308608,-2.14988 1.405079,-2.01665 1.506148,-1.86712 1.618724,-1.68929 1.773749,-1.42995 0.173971,-0.10079 -1.429295,-2.56746 -1.340704,-2.61484 -0.180464,0.0887 -2.174374,0.68038 -2.303934,0.4074 -2.389221,0.215 -2.457409,0.0479 -2.514576,-0.10637 -0.836305,-1.95821 -0.793303,-1.976 1.70288,-1.85328 1.771506,-1.70378 1.841475,-1.53741 1.917195,-1.34105 2.018611,-1.05642 0.190308,-0.0649 -0.900935,-2.79699 -0.804833,-2.82614 -0.194282,0.0518 -2.265346,0.2431 -2.339126,-0.0499 -2.385246,-0.25526 -2.419538,-0.43244 -2.445532,-0.59486 -0.438198,-2.08375 -0.392561,-2.09281 2.031712,-1.48544 2.069862,-1.32546 2.106024,-1.14861 2.141979,-0.94124 2.185927,-0.64232 0.199319,-0.0265 -0.33796,-2.91902 -0.238,-2.92886 -0.200659,0.0129 -2.269251,-0.20352 -2.284455,-0.50528 -2.289608,-0.71568 -2.288683,-0.89616 -2.282468,-1.06055 -0.02327,-2.12918 0.02327,-2.12918 2.282468,-1.06055 2.288683,-0.89616 2.289608,-0.71568 2.284455,-0.50528 2.269251,-0.20352 0.200659,0.0129 0.238,-2.92886 0.33796,-2.91902 -0.199319,-0.0265 -2.185927,-0.64232 -2.141979,-0.94124 -2.106024,-1.14861 -2.069862,-1.32546 -2.031712,-1.48544 0.392561,-2.09281 0.438198,-2.08375 2.445532,-0.59486 2.419538,-0.43244 2.385246,-0.25526 2.339126,-0.0499 2.265346,0.2431 0.194282,0.0518 0.804833,-2.82614 0.900935,-2.79699 -0.190308,-0.0649 -2.018611,-1.05642 -1.917195,-1.34105 -1.841475,-1.53741 -1.771506,-1.70378 -1.70288,-1.85328 0.793303,-1.976 0.836305,-1.95821 2.514576,-0.10637 2.457409,0.0479 2.389221,0.215 2.303934,0.4074 2.174374,0.68038 0.180464,0.0887 1.340704,-2.61484 1.429295,-2.56746 -0.173971,-0.10079 -1.773749,-1.42995 -1.618724,-1.68929 -1.506148,-1.86712 -1.405079,-2.01665 -1.308608,-2.14988 1.163566,-1.78329 1.202248,-1.75741 2.487009,0.38625 2.400867,0.5264 2.301369,0.67698 2.180151,0.84904 1.999892,1.09152 0.15969,0.12216 1.82507,-2.30303 1.90271,-2.2393 -0.15096,-0.1328 -1.46069,-1.74849 -1.25808,-1.97265 -1.11294,-2.12507 -0.98465,-2.25201 -0.864031,-2.36387 1.489091,-1.52203 1.52203,-1.48909 2.36387,0.86403 2.25201,0.98465 2.12507,1.11294 1.97265,1.25808 1.74849,1.46069 0.1328,0.15096 2.2393,-1.90271 2.30303,-1.82507 -0.12216,-0.15969 -1.09152,-1.99989 -0.84904,-2.18015 -0.67698,-2.30137 -0.5264,-2.40087 -0.38625,-2.48701 1.75741,-1.20225 1.78329,-1.16356 2.14988,1.30861 2.01665,1.40507 1.86712,1.50615 1.68929,1.61873 1.42995,1.77375 0.10079,0.17397 2.56746,-1.4293 2.61484,-1.3407 -0.0887,-0.18047 -0.68038,-2.17437 -0.4074,-2.30393 -0.215,-2.38922 -0.0479,-2.45741 0.10637,-2.51458 1.95821,-0.8363 1.976,-0.79331 1.85328,1.70288 1.70378,1.77151 1.53741,1.84147 1.34105,1.9172 1.05642,2.01861 0.0649,0.19031 2.79699,-0.90094 2.82614,-0.80483 -0.0518,-0.19428 -0.2431,-2.26535 0.0499,-2.33912 0.25526,-2.38525 0.43244,-2.41954 0.59486,-2.44553 2.08375,-0.4382 2.09281,-0.39256 1.48544,2.03171 1.32546,2.06986 1.14861,2.10603 0.94124,2.14198 0.64232,2.18592 0.0265,0.19932 2.91902,-0.33796 2.92886,-0.238 -0.0129,-0.20066 0.20352,-2.26925 0.50528,-2.28445 0.71568,-2.28961 0.89616,-2.28868 1.06055,-2.28247 2.12918,-0.0233 2.12918,0.0233 1.06055,2.28247 0.89616,2.28868 0.71568,2.28961 0.50528,2.28445 0.20352,2.26925 -0.0129,0.20066 2.92886,0.238 2.91902,0.33796 0.0265,-0.19932 0.64232,-2.18592 0.94124,-2.14198 1.14861,-2.10603 1.32546,-2.06986 1.48544,-2.03171 2.09281,0.39256 2.08375,0.4382 0.59486,2.44553 0.43244,2.41954 0.25526,2.38525 0.0499,2.33912 -0.2431,2.26535 -0.0518,0.19428 2.82614,0.80483 2.79699,0.90094 0.0649,-0.19031 1.05642,-2.01861 1.34105,-1.9172 1.53741,-1.84147 1.70378,-1.77151 1.85328,-1.70288 1.976,0.79331 1.95821,0.8363 0.10637,2.51458 -0.0479,2.45741 -0.215,2.38922 -0.4074,2.30393 -0.68038,2.17437 -0.0887,0.18047 2.61484,1.3407 2.56746,1.4293 0.10079,-0.17397 1.42995,-1.77375 1.68929,-1.61873 1.86712,-1.50615 2.01665,-1.40507 2.14988,-1.30861 1.78329,1.16356 1.75741,1.20225 -0.38625,2.48701 -0.5264,2.40087 -0.67698,2.30137 -0.84904,2.18015 -1.09152,1.99989 -0.12216,0.15969 2.30303,1.82507 2.2393,1.90271 0.1328,-0.15096 1.74849,-1.46069 1.97265,-1.25808 2.12507,-1.11294 2.25201,-0.98465 2.36387,-0.86403 1.52203,1.48909 1.48909,1.52203 -0.86403,2.36387 -0.98465,2.25201 -1.11294,2.12507 -1.25808,1.97265 -1.46069,1.74849 -0.15096,0.1328 1.90271,2.2393 1.82507,2.30303 0.15969,-0.12216 1.99989,-1.09152 2.18015,-0.84904 2.30137,-0.67698 2.40087,-0.5264 2.48701,-0.38625 1.20225,1.75741 1.16356,1.78329 -1.30861,2.14988 -1.40507,2.01665 -1.50615,1.86712 -1.61873,1.68929 -1.77375,1.42995 -0.17397,0.10079 1.4293,2.56746 1.3407,2.61484 0.18047,-0.0887 2.17437,-0.68038 2.30393,-0.4074 2.38923,-0.215 2.4574,-0.0479 2.51458,0.10637 0.8363,1.95821 0.79331,1.976 -1.70288,1.85328 -1.77151,1.70378 -1.84147,1.53741 -1.9172,1.34105 -2.01861,1.05642 -0.19031,0.0649 0.90094,2.79699 0.80483,2.82614 0.19428,-0.0518 2.26535,-0.2431 2.33912,0.0499 2.38525,0.25526 2.41954,0.43244 2.44553,0.59486 0.4382,2.08375 0.39256,2.09281 -2.03171,1.48544 -2.06986,1.32546 -2.10603,1.14861 -2.14198,0.94124 -2.18592,0.64232 -0.19932,0.0265 0.33796,2.91902 0.238,2.92886 z m -82.08778,6.73849 a 4.0937264,4.0937264 0 0 1 -4.79417,2.76791 l -39.79891,68.93374 a 83.512019,83.512019 0 0 0 124.19089,-71.70165 z m -6.92133,1.53979 a 4.0937264,4.0937264 0 0 1 0,-5.53582 l -39.79892,-68.93374 a 83.512019,83.512019 0 0 0 0,143.4033 z m 2.12716,-6.76394 a 4.0937264,4.0937264 0 0 1 4.79417,2.76791 l 79.59781,0 A 83.512019,83.512019 0 0 0 129.04009,302.28123 z m 0.889,5.63352 a 1.6374905,1.6374905 0 0 0 0,-3.27498 1.6374905,1.6374905 0 1 0 0,3.27498"
     style="fill:#a4945c;fill-opacity:1;stroke:#000000;stroke-width:0.13864087999999999"
     inkscape:connector-curvature="0">
    <animateTransform
       id="animateTransform3887"
       attributeName="transform"
       type="rotate"
       from="360,169.80,375"
       to="0,169.80,375"
       dur="24"
       repeatCount="indefinite" />
  </path>
  <path
     inkscape:connector-curvature="0"
     style="fill:#a4945c;fill-opacity:1;stroke:#000000;stroke-width:0.13900132000000001"
     d="m 383.48386,127.0836 2.27127,-0.24355 2.34519,0.0502 2.39143,0.25607 2.4258,0.43374 2.45182,0.59663 0.4392,2.08917 0.39342,2.09828 -2.03714,1.48916 -2.07534,1.32872 -2.11155,1.15145 -2.14764,0.94351 -2.19167,0.64383 -0.19983,0.0266 0.3386,2.92662 0.23841,2.9365 0.20119,-0.0129 2.27513,0.2042 2.29033,0.50676 2.29554,0.71771 2.29457,0.89868 2.2883,1.06348 0.0232,2.13471 -0.0235,2.13474 -2.28851,1.0631 -2.29471,0.89832 -2.29563,0.71739 -2.29041,0.5064 -2.27519,0.20386 -0.20117,-0.0126 -0.23884,2.93645 -0.33908,2.92656 0.19984,0.0266 2.19155,0.64416 2.14748,0.94386 2.1114,1.15177 2.07516,1.32904 2.03688,1.48948 -0.39374,2.09822 -0.43951,2.08911 -2.45193,0.59624 -2.42585,0.43338 -2.39148,0.25571 -2.34523,0.0499 -2.2712,-0.2439 -0.19481,-0.0519 -0.80712,2.83344 -0.9035,2.80417 0.1908,0.0651 2.0238,1.05933 1.92207,1.34466 1.84611,1.54156 1.77601,1.70834 1.70716,1.85823 -0.79554,1.9811 -0.83862,1.96321 -2.5211,0.10643 -2.46382,-0.0482 -2.39543,-0.21576 -2.30985,-0.40864 -2.18002,-0.68231 -0.18091,-0.0889 -1.34441,2.62152 -1.43317,2.57404 0.1744,0.10108 1.77823,1.43379 1.62284,1.69382 1.5099,1.87209 1.40858,2.02199 1.31184,2.15558 -1.16673,1.78783 -1.20553,1.76189 -2.49344,-0.38746 -2.40704,-0.52794 -2.3073,-0.67892 -2.1858,-0.85143 -2.00496,-1.0945 -0.1601,-0.12249 -1.83001,2.30886 -1.90783,2.24498 0.15135,0.13315 1.46437,1.75318 1.26117,1.97784 1.11567,2.13069 0.98706,2.25797 0.86608,2.37009 -1.4931,1.52583 -1.5261,1.49286 -2.36994,-0.86645 -2.25777,-0.98739 -2.13053,-1.11601 -1.97766,-1.26148 -1.75293,-1.46463 -0.13314,-0.15137 -2.24528,1.90748 -2.30917,1.82964 0.12248,0.16013 1.09419,2.00514 0.85109,2.18593 0.67856,2.3074 0.52759,2.40712 0.38706,2.4935 -1.7621,1.20526 -1.78798,1.16645 -2.15537,-1.31217 -2.0218,-1.40889 -1.87186,-1.51022 -1.69357,-1.62307 -1.43352,-1.77845 -0.10103,-0.17444 -2.57427,1.4328 -2.62173,1.34401 0.0889,0.18092 0.68197,2.1801 0.40831,2.30994 0.21535,2.39544 0.0478,2.4638 -0.10679,2.52112 -1.96339,0.83832 -1.98121,0.79521 -1.85795,-1.70744 -1.70808,-1.77625 -1.54127,-1.84638 -1.34437,-1.92228 -1.05901,-2.02395 -0.065,-0.19081 -2.80434,0.90307 -2.83356,0.80669 0.052,0.1948 0.24355,2.27127 -0.0502,2.34521 -0.25607,2.39142 -0.43375,2.4258 -0.59662,2.45183 -2.08917,0.43918 -2.09828,0.39341 -1.48916,-2.03711 -1.32873,-2.07535 -1.15144,-2.11156 -0.94351,-2.14763 -0.64383,-2.19166 -0.0266,-0.19984 -2.92662,0.33862 -2.93649,0.23839 0.0129,0.20119 -0.2042,2.27512 -0.50676,2.29034 -0.71772,2.29555 -0.89867,2.29455 -1.06347,2.28832 -2.13472,0.0232 -2.13474,-0.0234 -1.06311,-2.2885 -0.89831,-2.29471 -0.71739,-2.29562 -0.5064,-2.29043 -0.20386,-2.27516 0.0126,-0.2012 -2.93645,-0.23885 -2.92656,-0.33907 -0.0266,0.19984 -0.64416,2.19155 -0.94385,2.14748 -1.15178,2.11141 -1.32904,2.07515 -1.48948,2.03688 -2.09822,-0.39375 -2.08911,-0.4395 -0.59624,-2.45192 -0.43337,-2.42587 -0.25572,-2.39147 -0.0499,-2.34524 0.2439,-2.2712 0.0519,-0.19479 -2.83344,-0.80712 -2.80417,-0.9035 -0.0651,0.19078 -1.05933,2.0238 -1.34466,1.92208 -1.54156,1.84612 -1.70834,1.77599 -1.85823,1.70717 -1.9811,-0.79553 -1.96321,-0.83862 -0.10643,-2.52113 0.0482,-2.46381 0.21576,-2.39542 0.40864,-2.30985 0.68231,-2.18002 0.0889,-0.18091 -2.62152,-1.3444 -2.57404,-1.43319 -0.10108,0.17441 -1.43379,1.77824 -1.69382,1.62283 -1.87209,1.50991 -2.02199,1.40856 -2.15558,1.31184 -1.78782,-1.16671 -1.7619,-1.20554 0.38746,-2.49345 0.52794,-2.40703 0.67892,-2.3073 0.85143,-2.18578 1.0945,-2.00498 0.12249,-0.1601 -2.30886,-1.83 -2.24498,-1.90784 -0.13315,0.15135 -1.75318,1.46437 -1.97784,1.26117 -2.13069,1.11568 -2.25797,0.98705 -2.37009,0.86609 -1.52583,-1.49309 -1.49287,-1.5261 0.86646,-2.36994 0.9874,-2.2578 1.116,-2.13052 1.26148,-1.97766 1.46464,-1.75294 0.15136,-0.13314 -1.90748,-2.24525 -1.82964,-2.30917 -0.16013,0.12247 -2.00514,1.09419 -2.18593,0.85109 -2.3074,0.67856 -2.40712,0.52758 -2.4935,0.38706 -1.20526,-1.76209 -1.16645,-1.78798 1.31217,-2.15539 1.40889,-2.02178 1.51022,-1.87186 1.62307,-1.69357 1.77845,-1.43352 0.17444,-0.10103 -1.4328,-2.57427 -1.34401,-2.62173 -0.18092,0.0889 -2.18009,0.68197 -2.30994,0.40831 -2.39545,0.21535 -2.46378,0.0478 -2.52113,-0.1068 -0.83833,-1.96338 -0.7952,-1.98121 1.70743,-1.85795 1.77625,-1.70809 1.84639,-1.54127 1.92228,-1.34436 2.02395,-1.05902 0.1908,-0.065 -0.90306,-2.80433 -0.80669,-2.83357 -0.1948,0.052 -2.27127,0.24355 -2.34521,-0.0502 -2.39143,-0.25607 -2.42579,-0.43375 -2.45184,-0.59662 -0.43917,-2.08918 -0.39341,-2.09827 2.03711,-1.48916 2.07535,-1.32874 2.11156,-1.15143 2.14763,-0.94352 2.19166,-0.64382 0.19984,-0.0266 -0.33862,-2.92662 -0.23839,-2.93649 -0.20119,0.0129 -2.27512,-0.2042 -2.29035,-0.50675 -2.29554,-0.71772 -2.29455,-0.89868 -2.28833,-1.06347 -0.0232,-2.13471 0.0234,-2.13474 2.28851,-1.06311 2.29471,-0.89832 2.29562,-0.71738 2.29043,-0.5064 2.27515,-0.20386 0.2012,0.0126 0.23886,-2.93646 0.33907,-2.92656 -0.19984,-0.0266 -2.19156,-0.64416 -2.14747,-0.94386 -2.11141,-1.15178 -2.07515,-1.32904 -2.03688,-1.48947 0.39375,-2.09822 0.43951,-2.08911 2.45191,-0.59625 2.42587,-0.43337 2.39147,-0.25572 2.34523,-0.0499 2.27121,0.2439 0.19479,0.0519 0.80712,-2.83344 0.9035,-2.80418 -0.19078,-0.0651 -2.0238,-1.05933 -1.92207,-1.34466 -1.84613,-1.54156 -1.77599,-1.70835 -1.70716,-1.85823 0.79552,-1.9811 0.83862,-1.96321 2.52113,-0.10643 2.46381,0.0482 2.39542,0.21576 2.30985,0.40864 2.18002,0.68231 0.18091,0.0888 1.3444,-2.62152 1.4332,-2.57405 -0.17442,-0.10108 -1.77824,-1.43379 -1.62283,-1.69381 -1.50991,-1.87209 -1.40856,-2.021996 -1.31184,-2.155572 1.16671,-1.787832 1.20554,-1.761893 2.49345,0.387459 2.40703,0.527942 2.3073,0.678908 2.18578,0.851429 2.00498,1.094513 0.1601,0.122487 1.83,-2.308861 1.90784,-2.244978 -0.15135,-0.133147 -1.46437,-1.753181 -1.26117,-1.977848 -1.11568,-2.130687 -0.98705,-2.257971 -0.86609,-2.370082 1.49309,-1.525843 1.5261,-1.492865 2.36994,0.866473 2.2578,0.987386 2.13052,1.11601 1.97766,1.26148 1.75294,1.464633 0.13314,0.151366 2.24525,-1.907492 2.30917,-1.829639 -0.12247,-0.160124 -1.09419,-2.005142 -0.85108,-2.185921 -0.67857,-2.307401 -0.52758,-2.407127 -0.38706,-2.493506 1.76209,-1.205254 1.78798,-1.166445 2.15539,1.312173 2.02178,1.408883 1.87186,1.510218 1.69357,1.623071 1.43352,1.778451 0.10103,0.174446 2.57427,-1.432805 2.62173,-1.344005 -0.0889,-0.180927 -0.68197,-2.180097 -0.40831,-2.309933 -0.21535,-2.395443 -0.0478,-2.463805 0.1068,-2.521122 1.96338,-0.838322 1.98121,-0.795214 1.85795,1.707451 1.70808,1.776245 1.54127,1.846379 1.34437,1.922283 1.05901,2.023945 0.065,0.19081 2.80433,-0.903063 2.83357,-0.80669 -0.052,-0.194808 -0.24355,-2.271264 0.0502,-2.34521 0.25607,-2.391424 0.43375,-2.425794 0.59662,-2.451828 2.08918,-0.439179 2.09827,-0.393419 1.48917,2.037104 1.32873,2.075361 1.15143,2.111554 0.94352,2.147628 0.64382,2.191675 0.0266,0.199836 2.92662,-0.338618 2.93649,-0.238396 -0.0129,-0.201186 0.2042,-2.275126 0.50675,-2.290347 0.71772,-2.295539 0.89868,-2.294554 1.06346,-2.28832 2.13472,-0.02317 2.13474,0.02349 1.06311,2.288506 0.89832,2.294702 0.71738,2.295623 0.5064,2.290426 0.20386,2.275162 -0.0126,0.201192 2.93646,0.238863 2.92656,0.339066 0.0266,-0.199833 0.64416,-2.191555 0.94386,-2.14748 1.15177,-2.11141 1.32905,-2.075137 1.48947,-2.036884 2.09822,0.393745 2.08911,0.439507 0.59625,2.451913 0.43337,2.425862 0.25572,2.391481 0.0499,2.345225 -0.2439,2.271204 -0.052,0.194794 2.83344,0.807125 2.80418,0.903503 0.0651,-0.190784 1.05933,-2.0238 1.34465,-1.922068 1.54156,-1.846133 1.70835,-1.775982 1.85824,-1.707168 1.9811,0.795523 1.96321,0.838618 0.10643,2.521121 -0.0482,2.463814 -0.21575,2.395416 -0.40864,2.309857 -0.68231,2.180012 -0.0889,0.180921 2.62151,1.344391 2.57406,1.433194 0.10108,-0.174405 1.43379,-1.778245 1.6938,-1.622824 1.8721,-1.509905 2.02199,-1.408571 2.15558,-1.311837 1.78782,1.166714 1.76189,1.205533 -0.38745,2.493451 -0.52794,2.40704 -0.67891,2.307286 -0.85143,2.185788 -1.09451,2.004976 -0.12249,0.160101 2.30885,1.83 2.24499,1.907849 0.13315,-0.151356 1.75319,-1.464368 1.97782,-1.261168 2.13072,-1.115676 2.25795,-0.987054 2.37009,-0.866088 1.52584,1.493087 1.49286,1.526098 -0.86646,2.369947 -0.9874,2.257794 -1.11598,2.130521 -1.26151,1.977661 -1.46463,1.752937 -0.15136,0.133131 1.90749,2.245263 1.82964,2.309164 0.16012,-0.122471 2.00515,-1.094185 2.18592,-0.851084 2.3074,-0.678573 2.40712,-0.527579 2.4935,-0.387064 1.20527,1.762091 1.16645,1.787996 -1.31218,2.155374 -1.40889,2.021785 -1.51022,1.87186 -1.62308,1.69357 -1.77844,1.43351 -0.17445,0.10104 1.43281,2.57427 1.34399,2.62173 0.18093,-0.0889 2.18011,-0.68197 2.30993,-0.40831 2.39546,-0.21535 2.46378,-0.0478 2.52113,0.10679 0.83832,1.96339 0.79522,1.98121 -1.70744,1.85795 -1.77627,1.70808 -1.84637,1.54127 -1.92226,1.34437 -2.02397,1.05901 -0.19081,0.065 0.90307,2.80434 0.80671,2.83356 z m -79.40353,22.67622 a 4.1043697,4.1043697 0 0 1 -4.17316,3.65919 l -25.65826,75.56756 a 83.729143,83.729143 0 0 0 108.10398,-94.78984 z m -6.50503,2.86742 a 4.1043697,4.1043697 0 0 1 -1.08237,-5.44365 L 243.87862,87.179115 a 83.729143,83.729143 0 0 0 28.03843,141.015695 z m 0.76925,-7.06723 a 4.1043697,4.1043697 0 0 1 5.25553,1.78446 L 381.87264,131.7814 A 83.729143,83.729143 0 0 0 245.73026,85.555537 z m 1.97567,5.3659 a 1.6417483,1.6417483 0 1 0 -0.64033,-3.22045 1.6417483,1.6417483 0 1 0 0.64033,3.22045"
     id="outerGear1">
    <animateTransform
       repeatCount="indefinite"
       dur="24"
       to="0,300,149.23"
       from="360,300,149.23"
       type="rotate"
       attributeName="transform"
       id="animateTransform3889" />
  </path>
  <path
     style="opacity:0.90650407000000000;fill:#808464;fill-opacity:1;fill-rule:evenodd;stroke:#000000;stroke-width:0;stroke-linecap:round;stroke-linejoin:round;stroke-miterlimit:4;stroke-opacity:1"
     d="m 300,24.99999 c -151.8783,0 -275,123.12169 -275,275 0,151.87831 123.1217,275.00002 275,275.00002 151.87831,0 275,-123.12171 275,-275.00002 0,-151.87831 -123.12169,-275 -275,-275 z m -2.4375,25.0625 2.4375,0 2.4375,0 1,2.46875 0.90625,2.4375 0.84375,2.46875 0.75,2.4375 0.65625,2.46875 2.75,0.0937 2.71875,0.125 0.84375,-2.40625 0.9375,-2.375 1.03125,-2.375 1.125,-2.375 1.1875,-2.375 2.4375,0.1875 2.40625,0.1875 0.8125,2.53125 0.71875,2.5 0.65625,2.53125 0.5625,2.5 0.4375,2.5 2.71875,0.3125 2.71875,0.34375 1.03125,-2.34375 1.125,-2.3125 1.21875,-2.28125 1.28125,-2.28125 1.375,-2.25 2.40625,0.34375 2.40625,0.40625 0.59375,2.5625 0.53125,2.59375 0.46875,2.53125 0.34375,2.5625 0.25,2.53125 2.6875,0.5 2.6875,0.5625 1.21875,-2.25 1.28125,-2.1875 1.40625,-2.21875 1.46875,-2.15625 1.53125,-2.15625 2.375,0.5625 2.375,0.59375 0.40625,2.59375 0.3125,2.59375 0.25,2.59375 0.15625,2.5625 0.0625,2.5625 2.625,0.71875 2.625,0.75 1.375,-2.125 1.46875,-2.125 1.5625,-2.0625 1.65625,-2.0625 1.6875,-2 2.34375,0.71875 2.3125,0.78125 0.1875,2.625 0.125,2.625 0.0312,2.59375 -0.0625,2.5625 -0.125,2.5625 2.5625,0.90625 2.5625,0.96875 1.5625,-2 1.625,-2 1.71875,-1.9375 1.78125,-1.90625 1.875,-1.90625 2.25,0.9375 2.25,0.9375 -0.0312,2.65625 -0.0937,2.59375 -0.15625,2.59375 -0.25,2.5625 -0.3125,2.53125 2.46875,1.125 2.46875,1.15625 1.71875,-1.875 1.78125,-1.875 1.84375,-1.78125 1.9375,-1.78125 2,-1.71875 2.1875,1.09375 2.15625,1.09375 -0.21875,2.65625 -0.28125,2.59375 -0.375,2.5625 -0.4375,2.53125 -0.53125,2.5 2.375,1.3125 2.375,1.34375 1.84375,-1.75 1.9375,-1.6875 2,-1.65625 2.0625,-1.625 2.125,-1.5625 2.09375,1.28125 2.0625,1.28125 -0.40625,2.59375 -0.5,2.59375 -0.59375,2.53125 -0.625,2.46875 -0.71875,2.4375 2.28125,1.5 2.25,1.53125 1.96875,-1.59375 2.0625,-1.53125 2.125,-1.5 2.1875,-1.4375 2.25,-1.40625 1.96875,1.40625 1.96875,1.46875 -0.625,2.5625 -0.71875,2.53125 -0.75,2.46875 -0.84375,2.4375 -0.90625,2.375 2.15625,1.65625 2.125,1.71875 2.09375,-1.4375 2.1875,-1.375 2.21875,-1.34375 2.3125,-1.25 2.34375,-1.21875 1.84375,1.5625 1.84375,1.59375 -0.8125,2.53125 -0.90625,2.4375 -0.9375,2.4375 -1.03125,2.34375 -1.09375,2.28125 2,1.84375 2,1.875 2.1875,-1.28125 2.28125,-1.1875 2.34375,-1.15625 2.375,-1.0625 2.4375,-1.03125 1.71875,1.71875 1.71875,1.71875 -1.03125,2.4375 -1.0625,2.375 -1.15625,2.34375 -1.1875,2.28125 -1.28125,2.1875 1.875,2 1.84375,2 2.28125,-1.09375 2.34375,-1.03125 2.4375,-0.9375 2.4375,-0.90625 2.53125,-0.8125 1.59375,1.84375 1.5625,1.84375 -1.21875,2.34375 -1.25,2.3125 -1.34375,2.21875 -1.375,2.1875 -1.4375,2.09375 1.71875,2.125 1.65625,2.15625 2.375,-0.90625 2.4375,-0.84375 2.46875,-0.75 2.53125,-0.71875 2.5625,-0.625 1.46875,1.96875 1.40625,1.96875 -1.40625,2.25 -1.4375,2.1875 -1.5,2.125 -1.53125,2.0625 -1.59375,1.96875 1.53125,2.25 1.5,2.28125 2.4375,-0.71875 2.46875,-0.625 2.53125,-0.59375 2.59375,-0.5 2.59375,-0.40625 1.28125,2.0625 1.28125,2.09375 -1.5625,2.125 -1.625,2.0625 -1.65625,2 -1.6875,1.9375 -1.75,1.84375 1.34375,2.375 1.3125,2.375 2.5,-0.53125 2.53125,-0.4375 2.5625,-0.375 2.59375,-0.28125 2.65625,-0.21875 1.09375,2.15625 1.09375,2.1875 -1.71875,2 -1.78125,1.9375 -1.78125,1.84375 -1.875,1.78125 -1.875,1.71875 1.15625,2.46875 1.125,2.46875 2.53125,-0.3125 2.5625,-0.25 2.59375,-0.15625 2.59375,-0.0937 2.65625,-0.0312 0.9375,2.25 0.9375,2.25 -1.90625,1.875 -1.90625,1.78125 -1.9375,1.71875 -2,1.625 -2,1.5625 0.96875,2.5625 0.90625,2.5625 2.5625,-0.125 2.5625,-0.0625 2.59375,0.0312 2.625,0.125 2.625,0.1875 0.78125,2.3125 0.71875,2.34375 -2,1.6875 -2.0625,1.65625 -2.0625,1.5625 -2.125,1.46875 -2.125,1.375 0.75,2.625 0.71875,2.625 2.5625,0.0625 2.5625,0.15625 2.59375,0.25 2.59375,0.3125 2.59375,0.40625 0.59375,2.375 0.5625,2.375 -2.15625,1.53125 -2.15625,1.46875 -2.21875,1.40625 -2.1875,1.28125 -2.25,1.21875 0.5625,2.6875 0.5,2.6875 2.53125,0.25 2.5625,0.34375 2.53125,0.46875 2.59375,0.53125 2.5625,0.59375 0.40625,2.40625 0.34375,2.40625 -2.25,1.375 -2.28125,1.28125 -2.28125,1.21875 -2.3125,1.125 -2.34375,1.03125 0.34375,2.71875 0.3125,2.71875 2.5,0.4375 2.5,0.5625 2.53125,0.65625 2.5,0.71875 2.53125,0.8125 0.1875,2.40625 0.1875,2.4375 -2.375,1.1875 -2.375,1.125 -2.375,1.03125 -2.375,0.9375 -2.40625,0.84375 0.125,2.71875 0.0937,2.75 2.46875,0.65625 2.4375,0.75 2.46875,0.84375 2.4375,0.90625 2.46875,1 0,2.4375 0,2.4375 -2.46875,1 -2.4375,0.90625 -2.46875,0.84375 -2.4375,0.75 -2.46875,0.65625 -0.0937,2.75 -0.125,2.71875 2.40625,0.84375 2.375,0.9375 2.375,1.03125 2.375,1.125 2.375,1.1875 -0.1875,2.4375 -0.1875,2.40625 -2.53125,0.8125 -2.5,0.71875 -2.53125,0.65625 -2.5,0.5625 -2.5,0.4375 -0.3125,2.71875 -0.34375,2.71875 2.34375,1.03125 2.3125,1.125 2.28125,1.21875 2.28125,1.28125 2.25,1.375 -0.34375,2.40625 -0.40625,2.40625 -2.5625,0.59375 -2.59375,0.53125 -2.53125,0.46875 -2.5625,0.34375 -2.53125,0.25 -0.5,2.6875 -0.5625,2.6875 2.25,1.21875 2.1875,1.28125 2.21875,1.40625 2.15625,1.46875 2.15625,1.53125 -0.5625,2.375 -0.59375,2.375 -2.59375,0.40625 -2.59375,0.3125 -2.59375,0.25 -2.5625,0.15625 -2.5625,0.0625 -0.71875,2.625 -0.75,2.625 2.125,1.375 2.125,1.46875 2.0625,1.5625 2.0625,1.65625 2,1.6875 -0.71875,2.34375 -0.78125,2.3125 -2.625,0.1875 -2.625,0.125 -2.59375,0.0312 -2.5625,-0.0625 -2.5625,-0.125 -0.90625,2.5625 -0.96875,2.5625 2,1.5625 2,1.625 1.9375,1.71875 1.90625,1.78125 1.90625,1.875 -0.9375,2.25 -0.9375,2.25 -2.65625,-0.0312 -2.59375,-0.0937 -2.59375,-0.15625 -2.5625,-0.25 -2.53125,-0.3125 -1.125,2.46875 -1.15625,2.46875 1.875,1.71875 1.875,1.78125 1.78125,1.84375 1.78125,1.9375 1.71875,2 -1.09375,2.1875 -1.09375,2.15625 -2.65625,-0.21875 -2.59375,-0.28125 -2.5625,-0.375 -2.53125,-0.4375 -2.5,-0.53125 -1.3125,2.375 -1.34375,2.375 1.75,1.84375 1.6875,1.9375 1.65625,2 1.625,2.0625 1.5625,2.125 -1.28125,2.09375 -1.28125,2.0625 -2.59375,-0.40625 -2.59375,-0.5 -2.53125,-0.59375 -2.46875,-0.625 -2.4375,-0.71875 -1.5,2.28125 -1.53125,2.25 1.59375,1.96875 1.53125,2.0625 1.5,2.125 1.4375,2.1875 1.40625,2.25 -1.40625,1.96875 -1.46875,1.96875 -2.5625,-0.625 -2.53125,-0.71875 -2.46875,-0.75 -2.4375,-0.84375 -2.375,-0.90625 -1.65625,2.15625 -1.71875,2.125 1.4375,2.09375 1.375,2.1875 1.34375,2.21875 1.25,2.3125 1.21875,2.34375 -1.5625,1.84375 -1.59375,1.84375 -2.53125,-0.8125 -2.4375,-0.90625 -2.4375,-0.9375 -2.34375,-1.03125 -2.28125,-1.09375 -1.84375,2 -1.875,2 1.28125,2.1875 1.1875,2.28125 1.15625,2.34375 1.0625,2.375 1.03125,2.4375 -1.71875,1.71875 -1.71875,1.71875 -2.4375,-1.03125 -2.375,-1.0625 -2.34375,-1.15625 -2.28125,-1.1875 -2.1875,-1.28125 -2,1.875 -2,1.84375 1.09375,2.28125 1.03125,2.34375 0.9375,2.4375 0.90625,2.4375 0.8125,2.53125 -1.84375,1.59375 -1.84375,1.5625 -2.34375,-1.21875 -2.3125,-1.25 -2.21875,-1.34375 -2.1875,-1.375 -2.09375,-1.4375 -2.125,1.71875 -2.15625,1.65625 0.90625,2.375 0.84375,2.4375 0.75,2.46875 0.71875,2.53125 0.625,2.5625 -1.96875,1.46875 -1.96875,1.40625 -2.25,-1.40625 -2.1875,-1.4375 -2.125,-1.5 -2.0625,-1.53125 -1.96875,-1.59375 -2.25,1.53125 -2.28125,1.5 0.71875,2.4375 0.625,2.46875 0.59375,2.53125 0.5,2.59375 0.40625,2.59375 -2.0625,1.28125 -2.09375,1.28125 -2.125,-1.5625 -2.0625,-1.625 -2,-1.65625 -1.9375,-1.6875 -1.84375,-1.75 -2.375,1.34375 -2.375,1.3125 0.53125,2.5 0.4375,2.53125 0.375,2.5625 0.28125,2.59375 0.21875,2.65625 -2.15625,1.09375 -2.1875,1.09375 -2,-1.71875 -1.9375,-1.78125 -1.84375,-1.78125 -1.78125,-1.875 -1.71875,-1.875 -2.46875,1.15625 -2.46875,1.125 0.3125,2.53125 0.25,2.5625 0.15625,2.59375 0.0937,2.59375 0.0312,2.65625 -2.25,0.9375 -2.25,0.9375 -1.875,-1.90625 -1.78125,-1.90625 -1.71875,-1.9375 -1.625,-2 -1.5625,-2 -2.5625,0.96875 -2.5625,0.90625 0.125,2.5625 0.0625,2.5625 -0.0312,2.59375 -0.125,2.625 -0.1875,2.625 -2.3125,0.78125 -2.34375,0.71875 -1.6875,-2 -1.65625,-2.0625 -1.5625,-2.0625 -1.46875,-2.125 -1.375,-2.125 -2.625,0.75 -2.625,0.71875 -0.0625,2.5625 -0.15625,2.5625 -0.25,2.59375 -0.3125,2.59375 -0.40625,2.59375 -2.375,0.59375 -2.375,0.5625 -1.53125,-2.15625 -1.46875,-2.15625 -1.40625,-2.21875 -1.28125,-2.1875 -1.21875,-2.25 -2.6875,0.5625 -2.6875,0.5 -0.25,2.53125 -0.34375,2.5625 -0.46875,2.53125 -0.53125,2.59375 -0.59375,2.5625 -2.40625,0.40625 -2.40625,0.34375 -1.375,-2.25 -1.28125,-2.28125 -1.21875,-2.28125 -1.125,-2.3125 -1.03125,-2.34375 -2.71875,0.34375 -2.71875,0.3125 -0.4375,2.5 -0.5625,2.5 -0.65625,2.53125 -0.71875,2.5 -0.8125,2.53127 -2.40625,0.1875 -2.4375,0.1875 -1.1875,-2.37502 -1.125,-2.375 -1.03125,-2.375 -0.9375,-2.375 -0.84375,-2.40625 -2.71875,0.125 -2.75,0.0937 -0.65625,2.46875 -0.75,2.4375 -0.84375,2.46875 -0.90625,2.4375 -1,2.46877 -2.4375,0 -2.4375,0 -1,-2.46877 -0.90625,-2.4375 -0.84375,-2.46875 -0.75,-2.4375 -0.65625,-2.46875 -2.75,-0.0937 -2.71875,-0.125 -0.84375,2.40625 -0.9375,2.375 -1.03125,2.375 -1.125,2.375 -1.1875,2.37502 -2.4375,-0.1875 -2.40625,-0.1875 -0.8125,-2.53127 -0.71875,-2.5 -0.65625,-2.53125 -0.5625,-2.5 -0.4375,-2.5 -2.71875,-0.3125 -2.71875,-0.34375 -1.03125,2.34375 -1.125,2.3125 -1.21875,2.28125 -1.28125,2.28125 -1.375,2.25 -2.40625,-0.34375 -2.40625,-0.40625 -0.59375,-2.5625 -0.53125,-2.59375 -0.46875,-2.53125 -0.34375,-2.5625 -0.25,-2.53125 -2.6875,-0.5 -2.6875,-0.5625 -1.21875,2.25 -1.28125,2.1875 -1.40625,2.21875 -1.46875,2.15625 -1.53125,2.15625 -2.375,-0.5625 -2.375,-0.59375 -0.40625,-2.59375 -0.3125,-2.59375 -0.25,-2.59375 -0.15625,-2.5625 -0.0625,-2.5625 -2.625,-0.71875 -2.625,-0.75 -1.375,2.125 -1.46875,2.125 -1.5625,2.0625 -1.65625,2.0625 -1.6875,2 -2.34375,-0.71875 -2.3125,-0.78125 -0.1875,-2.625 -0.125,-2.625 -0.0312,-2.59375 0.0625,-2.5625 0.125,-2.5625 -2.5625,-0.90625 -2.5625,-0.96875 -1.5625,2 -1.625,2 -1.71875,1.9375 -1.78125,1.90625 -1.875,1.90625 -2.25,-0.9375 -2.25,-0.9375 0.0312,-2.65625 0.0937,-2.59375 0.15625,-2.59375 0.25,-2.5625 0.3125,-2.53125 -2.46875,-1.125 -2.46875,-1.15625 -1.71875,1.875 -1.78125,1.875 -1.84375,1.78125 -1.9375,1.78125 -2,1.71875 -2.1875,-1.09375 -2.15625,-1.09375 0.21875,-2.65625 0.28125,-2.59375 0.375,-2.5625 0.4375,-2.53125 0.53125,-2.5 -2.375,-1.3125 -2.375,-1.34375 -1.84375,1.75 -1.9375,1.6875 -2,1.65625 -2.0625,1.625 -2.125,1.5625 -2.09375,-1.28125 -2.0625,-1.28125 0.40625,-2.59375 0.5,-2.59375 0.59375,-2.53125 0.625,-2.46875 0.71875,-2.4375 -2.28125,-1.5 -2.25,-1.53125 -1.96875,1.59375 -2.0625,1.53125 -2.125,1.5 -2.1875,1.4375 -2.25,1.40625 -1.96875,-1.40625 -1.96875,-1.46875 0.625,-2.5625 0.71875,-2.53125 0.75,-2.46875 0.84375,-2.4375 0.90625,-2.375 -2.15625,-1.65625 -2.125,-1.71875 -2.09375,1.4375 -2.1875,1.375 -2.21875,1.34375 -2.3125,1.25 -2.34375,1.21875 -1.84375,-1.5625 -1.84375,-1.59375 0.8125,-2.53125 0.90625,-2.4375 0.9375,-2.4375 1.03125,-2.34375 1.09375,-2.28125 -2,-1.84375 -2,-1.875 -2.1875,1.28125 -2.28125,1.1875 -2.34375,1.15625 -2.375,1.0625 -2.4375,1.03125 -1.71875,-1.71875 -1.71875,-1.71875 1.03125,-2.4375 1.0625,-2.375 1.15625,-2.34375 1.1875,-2.28125 1.28125,-2.1875 -1.875,-2 -1.84375,-2 -2.28125,1.09375 -2.34375,1.03125 -2.4375,0.9375 -2.4375,0.90625 -2.53125,0.8125 -1.59375,-1.84375 -1.5625,-1.84375 1.21875,-2.34375 1.25,-2.3125 1.34375,-2.21875 1.375,-2.1875 1.4375,-2.09375 -1.71875,-2.125 -1.65625,-2.15625 -2.375,0.90625 -2.4375,0.84375 -2.46875,0.75 -2.53125,0.71875 -2.5625,0.625 -1.46875,-1.96875 -1.40625,-1.96875 1.40625,-2.25 1.4375,-2.1875 1.5,-2.125 1.53125,-2.0625 1.59375,-1.96875 -1.53125,-2.25 -1.5,-2.28125 -2.4375,0.71875 -2.46875,0.625 -2.53125,0.59375 -2.59375,0.5 -2.59375,0.40625 -1.28125,-2.0625 -1.28125,-2.09375 1.5625,-2.125 1.625,-2.0625 1.65625,-2 1.6875,-1.9375 1.75,-1.84375 -1.34375,-2.375 -1.3125,-2.375 -2.5,0.53125 -2.53125,0.4375 -2.5625,0.375 -2.59375,0.28125 -2.65625,0.21875 -1.09375,-2.15625 -1.09375,-2.1875 1.71875,-2 1.78125,-1.9375 1.78125,-1.84375 1.875,-1.78125 1.875,-1.71875 -1.15625,-2.46875 -1.125,-2.46875 -2.53125,0.3125 -2.5625,0.25 -2.59375,0.15625 -2.59375,0.0937 -2.65625,0.0312 -0.9375,-2.25 -0.9375,-2.25 1.90625,-1.875 1.90625,-1.78125 1.9375,-1.71875 2,-1.625 2,-1.5625 -0.96875,-2.5625 -0.90625,-2.5625 -2.5625,0.125 -2.5625,0.0625 -2.59375,-0.0312 -2.625,-0.125 -2.625,-0.1875 -0.78125,-2.3125 -0.71875,-2.34375 2,-1.6875 2.0625,-1.65625 2.0625,-1.5625 2.125,-1.46875 2.125,-1.375 -0.75,-2.625 -0.71875,-2.625 -2.5625,-0.0625 -2.5625,-0.15625 -2.59375,-0.25 -2.59375,-0.3125 -2.59375,-0.40625 -0.59375,-2.375 -0.5625,-2.375 2.15625,-1.53125 2.15625,-1.46875 2.21875,-1.40625 2.1875,-1.28125 2.25,-1.21875 -0.5625,-2.6875 -0.5,-2.6875 -2.53125,-0.25 -2.5625,-0.34375 -2.53125,-0.46875 -2.59375,-0.53125 -2.5625,-0.59375 -0.40625,-2.40625 -0.34375,-2.40625 2.25,-1.375 2.28125,-1.28125 2.28125,-1.21875 2.3125,-1.125 2.34375,-1.03125 -0.34375,-2.71875 -0.3125,-2.71875 -2.5,-0.4375 -2.5,-0.5625 -2.53125,-0.65625 -2.5,-0.71875 -2.53125,-0.8125 -0.1875,-2.40625 -0.1875,-2.4375 2.375,-1.1875 2.375,-1.125 2.375,-1.03125 2.375,-0.9375 2.40625,-0.84375 -0.125,-2.71875 -0.09375,-2.75 -2.46875,-0.65625 -2.4375,-0.75 -2.46875,-0.84375 -2.4375,-0.90625 -2.46875,-1 0,-2.4375 0,-2.4375 2.46875,-1 2.4375,-0.90625 2.46875,-0.84375 2.4375,-0.75 2.46875,-0.65625 0.09375,-2.75 0.125,-2.71875 -2.40625,-0.84375 -2.375,-0.9375 -2.375,-1.03125 -2.375,-1.125 -2.375,-1.1875 0.1875,-2.4375 0.1875,-2.40625 2.53125,-0.8125 2.5,-0.71875 2.53125,-0.65625 2.5,-0.5625 2.5,-0.4375 0.3125,-2.71875 0.34375,-2.71875 -2.34375,-1.03125 -2.3125,-1.125 -2.28125,-1.21875 -2.28125,-1.28125 -2.25,-1.375 0.34375,-2.40625 0.40625,-2.40625 2.5625,-0.59375 2.59375,-0.53125 2.53125,-0.46875 2.5625,-0.34375 2.53125,-0.25 0.5,-2.6875 0.5625,-2.6875 -2.25,-1.21875 -2.1875,-1.28125 -2.21875,-1.40625 -2.15625,-1.46875 -2.15625,-1.53125 0.5625,-2.375 0.59375,-2.375 2.59375,-0.40625 2.59375,-0.3125 2.59375,-0.25 2.5625,-0.15625 2.5625,-0.0625 0.71875,-2.625 0.75,-2.625 -2.125,-1.375 -2.125,-1.46875 -2.0625,-1.5625 -2.0625,-1.65625 -2,-1.6875 0.71875,-2.34375 0.78125,-2.3125 2.625,-0.1875 2.625,-0.125 2.59375,-0.0312 2.5625,0.0625 2.5625,0.125 0.90625,-2.5625 0.96875,-2.5625 -2,-1.5625 -2,-1.625 -1.9375,-1.71875 -1.90625,-1.78125 -1.90625,-1.875 0.9375,-2.25 0.9375,-2.25 2.65625,0.0312 2.59375,0.0937 2.59375,0.15625 2.5625,0.25 2.53125,0.3125 1.125,-2.46875 1.15625,-2.46875 -1.875,-1.71875 -1.875,-1.78125 -1.78125,-1.84375 -1.78125,-1.9375 -1.71875,-2 1.09375,-2.1875 1.09375,-2.15625 2.65625,0.21875 2.59375,0.28125 2.5625,0.375 2.53125,0.4375 2.5,0.53125 1.3125,-2.375 1.34375,-2.375 -1.75,-1.84375 -1.6875,-1.9375 -1.65625,-2 -1.625,-2.0625 -1.5625,-2.125 1.28125,-2.09375 1.28125,-2.0625 2.59375,0.40625 2.59375,0.5 2.53125,0.59375 2.46875,0.625 2.4375,0.71875 1.5,-2.28125 1.53125,-2.25 -1.59375,-1.96875 -1.53125,-2.0625 -1.5,-2.125 -1.4375,-2.1875 -1.40625,-2.25 1.40625,-1.96875 1.46875,-1.96875 2.5625,0.625 2.53125,0.71875 2.46875,0.75 2.4375,0.84375 2.375,0.90625 1.65625,-2.15625 1.71875,-2.125 -1.4375,-2.09375 -1.375,-2.1875 -1.34375,-2.21875 -1.25,-2.3125 -1.21875,-2.34375 1.5625,-1.84375 1.59375,-1.84375 2.53125,0.8125 2.4375,0.90625 2.4375,0.9375 2.34375,1.03125 2.28125,1.09375 1.84375,-2 1.875,-2 -1.28125,-2.1875 -1.1875,-2.28125 -1.15625,-2.34375 -1.0625,-2.375 -1.03125,-2.4375 1.71875,-1.71875 1.71875,-1.71875 2.4375,1.03125 2.375,1.0625 2.34375,1.15625 2.28125,1.1875 2.1875,1.28125 2,-1.875 2,-1.84375 -1.09375,-2.28125 -1.03125,-2.34375 -0.9375,-2.4375 -0.90625,-2.4375 -0.8125,-2.53125 1.84375,-1.59375 1.84375,-1.5625 2.34375,1.21875 2.3125,1.25 2.21875,1.34375 2.1875,1.375 2.09375,1.4375 2.125,-1.71875 2.15625,-1.65625 -0.90625,-2.375 -0.84375,-2.4375 -0.75,-2.46875 -0.71875,-2.53125 -0.625,-2.5625 1.96875,-1.46875 1.96875,-1.40625 2.25,1.40625 2.1875,1.4375 2.125,1.5 2.0625,1.53125 1.96875,1.59375 2.25,-1.53125 2.28125,-1.5 -0.71875,-2.4375 -0.625,-2.46875 -0.59375,-2.53125 -0.5,-2.59375 -0.40625,-2.59375 2.0625,-1.28125 2.09375,-1.28125 2.125,1.5625 2.0625,1.625 2,1.65625 1.9375,1.6875 1.84375,1.75 2.375,-1.34375 2.375,-1.3125 -0.53125,-2.5 -0.4375,-2.53125 -0.375,-2.5625 -0.28125,-2.59375 -0.21875,-2.65625 2.15625,-1.09375 2.1875,-1.09375 2,1.71875 1.9375,1.78125 1.84375,1.78125 1.78125,1.875 1.71875,1.875 2.46875,-1.15625 2.46875,-1.125 -0.3125,-2.53125 -0.25,-2.5625 -0.15625,-2.59375 -0.0937,-2.59375 -0.0312,-2.65625 2.25,-0.9375 2.25,-0.9375 1.875,1.90625 1.78125,1.90625 1.71875,1.9375 1.625,2 1.5625,2 2.5625,-0.96875 2.5625,-0.90625 -0.125,-2.5625 -0.0625,-2.5625 0.0312,-2.59375 0.125,-2.625 0.1875,-2.625 2.3125,-0.78125 2.34375,-0.71875 1.6875,2 1.65625,2.0625 1.5625,2.0625 1.46875,2.125 1.375,2.125 2.625,-0.75 2.625,-0.71875 0.0625,-2.5625 0.15625,-2.5625 0.25,-2.59375 0.3125,-2.59375 0.40625,-2.59375 2.375,-0.59375 2.375,-0.5625 1.53125,2.15625 1.46875,2.15625 1.40625,2.21875 1.28125,2.1875 1.21875,2.25 2.6875,-0.5625 2.6875,-0.5 0.25,-2.53125 0.34375,-2.5625 0.46875,-2.53125 0.53125,-2.59375 0.59375,-2.5625 2.40625,-0.40625 2.40625,-0.34375 1.375,2.25 1.28125,2.28125 1.21875,2.28125 1.125,2.3125 1.03125,2.34375 2.71875,-0.34375 2.71875,-0.3125 0.4375,-2.5 0.5625,-2.5 0.65625,-2.53125 0.71875,-2.5 0.8125,-2.53125 2.40625,-0.1875 2.4375,-0.1875 1.1875,2.375 1.125,2.375 1.03125,2.375 0.9375,2.375 0.84375,2.40625 2.71875,-0.125 2.75,-0.0937 0.65625,-2.46875 0.75,-2.4375 0.84375,-2.46875 0.90625,-2.4375 1,-2.46875 z"
     id="ringGear"
     inkscape:connector-curvature="0">
    <animateTransform
       id="animateTransform3895"
       attributeName="transform"
       type="rotate"
       from="360,300,300"
       to="0,300,300"
       dur="60"
       repeatCount="indefinite" />
  </path>
</svg>
